<?xml version="1.0" standalone="no"?>
<!DOCTYPE svg PUBLIC "-//W3C//DTD SVG 20010904//EN"
 "http://www.w3.org/TR/2001/REC-SVG-20010904/DTD/svg10.dtd">
<svg version="1.0" xmlns="http://www.w3.org/2000/svg"
 width="500.000000pt" height="500.000000pt" viewBox="0 0 500.000000 500.000000"
 preserveAspectRatio="xMidYMid meet">

<g transform="translate(0.000000,500.000000) scale(0.100000,-0.100000)"
fill="#000000" stroke="none">
<path d="M2035 4755 c-505 -71 -933 -279 -1289 -625 -205 -200 -338 -382 -462
-635 -122 -250 -189 -487 -219 -769 -19 -185 -19 -263 0 -446 14 -140 20 -172
51 -310 66 -287 229 -617 430 -873 72 -90 247 -265 339 -338 341 -272 762
-445 1190 -490 605 -64 1210 110 1675 481 112 90 319 303 402 413 395 530 532
1214 376 1877 -147 628 -597 1193 -1186 1489 -246 124 -443 184 -741 226 -127
18 -438 18 -566 0z m635 -74 c650 -107 1206 -485 1549 -1054 146 -243 234
-494 292 -837 17 -99 17 -471 0 -570 -49 -288 -97 -446 -201 -658 -101 -208
-200 -354 -344 -511 -362 -394 -799 -627 -1336 -712 -113 -18 -519 -18 -615
-1 -397 75 -654 173 -925 356 -475 322 -811 813 -924 1351 -39 185 -41 212
-40 470 0 253 1 264 32 409 130 612 465 1102 984 1440 101 66 315 171 438 216
157 57 394 108 580 124 99 9 399 -5 510 -23z"/>
<path d="M2572 4500 c0 -14 2 -19 5 -12 2 6 2 18 0 25 -3 6 -5 1 -5 -13z"/>
<path d="M2604 4492 c21 -24 15 -52 -10 -52 -10 0 -15 -3 -11 -6 3 -3 15 -3
26 1 29 9 28 51 -1 66 -23 12 -23 12 -4 -9z"/>
<path d="M2562 4425 c0 -16 2 -22 5 -12 2 9 2 23 0 30 -3 6 -5 -1 -5 -18z"/>
<path d="M2268 4411 c-19 -16 -21 -22 -10 -33 13 -13 24 -4 35 26 5 15 37 -2
37 -19 0 -22 -60 -95 -78 -95 -12 0 -12 -3 -1 -16 31 -37 131 -48 174 -20 48
32 22 118 -35 115 -8 0 -3 -5 12 -10 34 -13 43 -37 22 -60 -13 -15 -31 -19
-81 -19 -34 0 -63 4 -63 9 0 10 45 57 81 84 38 29 120 19 160 -19 25 -24 29
-35 27 -69 -3 -35 -6 -41 -33 -46 -30 -7 -30 -7 -3 -8 33 -1 68 40 68 80 0 92
-100 137 -195 89 -34 -17 -40 -18 -48 -5 -16 30 -44 36 -69 16z"/>
<path d="M2076 4395 c-9 -9 -16 -24 -16 -33 0 -12 4 -9 13 8 15 30 64 40 74
15 3 -10 0 -20 -6 -25 -9 -5 -6 -9 8 -13 24 -6 29 -48 8 -65 -23 -19 -64 -24
-78 -10 -11 12 -15 12 -31 -4 -25 -25 -73 -23 -92 4 -22 31 -20 45 9 73 13 14
20 25 15 25 -18 0 -50 -54 -50 -84 0 -67 61 -104 111 -67 23 17 31 18 58 8 26
-10 34 -8 58 9 33 24 43 77 20 102 -9 10 -17 28 -19 42 -2 20 -10 26 -34 28
-19 2 -38 -3 -48 -13z"/>
<path d="M2898 4333 c6 -2 18 -2 25 0 6 3 1 5 -13 5 -14 0 -19 -2 -12 -5z"/>
<path d="M2831 4304 c-54 -68 7 -154 108 -154 31 0 44 6 60 26 25 32 25 35 6
60 -13 16 -14 16 -9 1 15 -43 -48 -61 -111 -32 -57 28 -66 86 -17 114 15 10
16 10 0 11 -9 0 -26 -12 -37 -26z"/>
<path d="M1865 4300 c21 -24 26 -25 19 -6 -3 8 -13 17 -22 21 -13 5 -13 2 3
-15z"/>
<path d="M3011 4292 c17 -15 34 -43 39 -62 7 -31 8 -32 9 -8 1 27 -50 98 -70
98 -5 0 5 -12 22 -28z"/>
<path d="M1673 4288 c-54 -59 -15 -148 64 -148 50 0 105 30 117 63 10 28 -5
77 -24 77 -6 0 -5 -8 2 -21 11 -18 10 -23 -15 -44 -82 -72 -198 -16 -138 66
26 35 23 38 -6 7z"/>
<path d="M1750 4277 c-32 -16 -33 -51 -2 -55 31 -5 52 15 50 44 -3 27 -12 29
-48 11z m35 -27 c0 -9 -11 -16 -27 -18 -27 -3 -38 14 -21 32 12 12 48 2 48
-14z"/>
<path d="M2957 4261 c6 -25 -21 -39 -42 -21 -9 7 -15 8 -15 2 0 -14 29 -24 51
-17 11 4 19 13 19 21 0 8 0 17 1 21 0 4 -4 9 -9 11 -6 2 -8 -6 -5 -17z"/>
<path d="M3135 4241 c-8 -14 12 -23 36 -16 11 4 28 1 37 -7 13 -9 12 -7 -2 10
-19 22 -60 30 -71 13z"/>
<path d="M1444 4211 c-17 -10 -42 -34 -54 -53 -13 -18 -25 -35 -27 -37 -1 -2
-9 2 -18 9 -31 26 -83 -8 -68 -45 8 -23 28 -12 28 16 0 38 38 33 45 -6 l6 -30
19 44 c22 47 72 81 123 81 60 0 120 -66 95 -104 -4 -6 0 -3 10 7 21 24 21 39
2 77 -29 57 -104 76 -161 41z"/>
<path d="M3097 4182 c-46 -51 19 -130 127 -156 41 -10 85 11 91 43 3 14 10 39
15 55 12 35 -10 66 -45 66 -27 0 -52 -25 -35 -35 6 -4 9 -1 8 7 -4 19 46 22
61 4 15 -18 5 -40 -15 -32 -11 4 -12 2 -1 -14 9 -15 9 -24 1 -38 -17 -26 -76
-20 -131 14 -59 37 -72 57 -55 84 15 25 1 26 -21 2z"/>
<path d="M3205 4190 c-3 -5 -1 -10 4 -10 6 0 11 5 11 10 0 6 -2 10 -4 10 -3 0
-8 -4 -11 -10z"/>
<path d="M1438 4133 c61 -12 39 -73 -40 -112 -36 -17 -44 -18 -48 -6 -4 10 -8
7 -17 -10 -11 -24 -10 -25 30 -25 42 0 101 27 125 58 31 41 -1 104 -53 101
-18 -2 -17 -2 3 -6z"/>
<path d="M2078 4105 c-538 -94 -974 -424 -1204 -910 -63 -133 -93 -229 -136
-430 -17 -80 -17 -439 0 -520 80 -381 202 -615 452 -866 359 -360 829 -520
1345 -459 709 84 1286 650 1385 1356 13 95 13 367 0 459 -55 384 -266 765
-559 1009 -207 172 -445 289 -712 347 -129 28 -445 36 -571 14z m240 -142 c1
-51 1 -93 -2 -93 -2 0 -71 -13 -153 -30 -161 -32 -272 -63 -375 -104 l-67 -27
-104 36 c-57 19 -111 35 -120 35 -57 0 2 46 161 125 183 90 441 155 607 151
l50 -1 3 -92z m287 71 c113 -21 263 -69 364 -115 90 -42 231 -126 231 -137 0
-4 -51 -23 -112 -43 l-112 -36 -53 23 c-103 46 -310 99 -500 129 l-43 7 0 99
0 100 73 -6 c39 -4 108 -13 152 -21z m-287 -300 c-2 -47 -7 -69 -18 -74 -8 -5
-58 -16 -110 -26 -52 -9 -119 -25 -148 -35 l-52 -18 -90 45 c-50 24 -90 46
-90 48 0 19 397 122 483 125 l28 1 -3 -66z m177 45 c136 -22 385 -93 385 -111
0 -4 -39 -26 -87 -49 l-87 -42 -66 21 c-36 12 -109 29 -162 39 l-98 18 0 73 0
74 28 -7 c15 -4 54 -11 87 -16z m-945 -82 c94 -29 95 -30 70 -46 -52 -33 -144
-128 -172 -178 l-30 -53 -64 0 c-35 0 -108 -5 -163 -11 -56 -6 -106 -9 -112
-7 -18 6 101 147 207 247 111 103 98 101 264 48z m1814 -39 c62 -55 216 -234
216 -251 0 -6 -35 -7 -92 -2 -51 4 -119 9 -151 10 l-58 4 -35 58 c-42 70 -85
115 -141 151 -24 15 -43 30 -43 33 0 5 135 47 205 64 16 4 36 -10 99 -67z
m-1536 -68 l86 -41 -52 -34 c-28 -20 -62 -49 -74 -65 l-22 -30 -133 0 c-73 0
-133 2 -133 5 0 47 172 205 223 205 11 0 58 -18 105 -40z m1227 -7 c60 -41
145 -133 145 -155 0 -5 -61 -8 -135 -8 l-135 0 -35 38 c-18 21 -50 47 -69 57
-20 11 -36 22 -36 26 0 7 170 88 186 89 6 0 41 -21 79 -47z m-737 -102 c2 -81
0 -102 -10 -98 -31 11 -238 156 -231 160 7 4 84 23 168 41 11 2 31 3 45 3 25
-2 25 -3 28 -106z m227 77 c75 -17 87 -23 72 -32 -10 -6 -62 -40 -115 -74 -53
-35 -103 -66 -109 -69 -10 -4 -13 20 -13 100 l0 106 38 -6 c20 -3 77 -14 127
-25z m-486 -93 c87 -52 131 -84 114 -85 -7 0 -34 4 -60 9 -26 5 -94 15 -150
21 -57 7 -103 16 -103 20 0 8 108 80 119 80 2 0 38 -20 80 -45z m729 0 c28
-20 52 -40 52 -44 0 -5 -39 -12 -87 -16 -49 -4 -122 -13 -163 -20 -41 -7 -77
-11 -80 -8 -3 3 0 8 5 10 6 2 48 28 95 58 47 29 94 54 105 54 11 1 44 -15 73
-34z m-1375 -180 c4 -41 14 -92 22 -112 9 -20 14 -42 11 -48 -2 -7 -30 -23
-63 -35 -83 -34 -257 -122 -333 -168 -44 -28 -67 -37 -72 -29 -17 31 -61 185
-62 217 0 25 14 61 49 125 l50 90 50 8 c28 4 111 11 185 16 74 4 140 9 146 10
7 0 14 -28 17 -74z m323 23 c-1 -29 2 -62 6 -73 7 -18 -3 -23 -108 -56 l-116
-37 -17 42 c-21 47 -34 136 -25 160 5 14 25 16 133 16 l128 0 -1 -52z m1424
45 l62 -6 -4 -66 c-3 -36 -12 -83 -20 -103 l-16 -36 -74 23 c-40 13 -92 28
-116 35 -38 10 -42 14 -36 33 4 12 7 43 7 69 l-1 47 52 4 c28 2 58 4 67 5 9 1
44 -1 79 -5z m-1115 -17 c12 -2 46 -7 78 -11 31 -4 59 -11 62 -15 2 -4 -30
-13 -73 -20 -42 -7 -120 -21 -172 -32 -143 -30 -134 -33 -138 36 l-3 59 113
-6 c62 -3 122 -8 133 -11z m853 -25 c2 -19 1 -45 -3 -58 -5 -21 -11 -24 -33
-20 -15 3 -79 15 -142 27 -63 12 -139 26 -168 32 -30 5 -51 12 -49 15 10 9
283 42 337 40 55 -2 55 -2 58 -36z m701 21 l44 -7 53 -104 c30 -57 54 -117 54
-133 0 -16 -14 -65 -31 -109 l-31 -80 -51 31 c-62 38 -297 152 -350 171 -31
11 -37 17 -33 34 20 76 36 155 36 184 l0 34 133 -7 c72 -5 152 -11 176 -14z
m-1279 -156 c0 -41 -4 -77 -9 -80 -4 -3 -58 -10 -120 -16 -62 -6 -140 -17
-174 -25 -82 -20 -93 -19 -77 0 27 33 183 128 262 161 119 48 118 49 118 -40z
m235 10 c77 -37 215 -131 215 -146 0 -13 2 -13 -67 5 -70 18 -120 25 -233 34
l-85 6 -3 69 c-4 96 -3 97 55 80 26 -8 80 -29 118 -48z m-525 20 c0 -2 -32
-27 -72 -56 l-72 -53 -23 29 c-34 43 -38 40 57 63 84 20 110 24 110 17z m757
-22 c37 -8 69 -17 71 -19 6 -5 -31 -65 -39 -65 -4 0 -40 23 -80 50 -82 57 -74
63 48 34z m-987 -77 c14 -23 27 -46 29 -50 9 -22 -122 -127 -158 -127 -16 0
-121 144 -112 153 10 10 178 65 201 66 8 1 26 -18 40 -42z m1248 9 c45 -14 87
-28 92 -31 11 -7 -56 -109 -91 -141 -15 -14 -23 -15 -47 -5 -45 19 -136 107
-126 122 44 76 56 90 72 85 9 -3 54 -17 100 -30z m-1548 -76 c6 -10 33 -48 60
-84 l50 -65 -71 -51 c-92 -67 -211 -181 -274 -264 -27 -36 -53 -65 -58 -65
-13 -1 -105 132 -152 220 l-45 87 82 50 c116 70 358 188 390 191 4 1 12 -8 18
-19z m1780 -6 c160 -65 370 -181 370 -204 0 -26 -163 -280 -180 -280 -3 0 -31
31 -62 68 -57 69 -184 182 -270 240 l-47 32 62 84 c34 47 62 85 63 85 0 1 29
-11 64 -25z m-814 -37 c129 -27 185 -57 266 -139 101 -102 144 -226 136 -394
-9 -179 -62 -282 -190 -367 -57 -37 -175 -90 -226 -102 l-32 -7 0 60 c0 69 6
76 75 93 58 14 108 43 155 90 l33 34 -24 5 c-32 8 -36 36 -10 71 26 35 29 118
5 154 l-16 25 -18 -23 c-33 -43 -40 -81 -24 -139 20 -76 18 -105 -11 -133 -26
-27 -69 -33 -82 -12 -9 14 -23 165 -22 245 0 59 -17 70 -27 17 -7 -37 -29 -51
-65 -40 -18 6 -20 13 -16 43 3 21 10 55 16 77 6 22 11 71 11 108 0 73 -39 263
-51 250 -11 -12 -37 -132 -44 -204 -4 -37 -2 -92 5 -129 24 -128 24 -137 1
-145 -30 -9 -61 3 -61 25 0 26 -10 50 -22 50 -5 0 -9 -24 -8 -52 2 -112 -14
-241 -31 -251 -28 -17 -68 1 -86 38 -15 31 -15 41 -3 88 17 67 14 113 -11 154
-11 18 -22 33 -25 33 -2 0 -10 -13 -19 -30 -21 -41 -19 -109 5 -145 25 -38 25
-65 0 -72 -27 -7 -25 -14 13 -49 51 -48 88 -70 142 -83 69 -17 75 -24 75 -93
0 -68 9 -67 -119 -17 -102 41 -204 111 -251 173 -89 117 -108 353 -43 511 42
100 129 196 223 246 32 16 195 57 235 58 17 1 80 -9 141 -22z m-1565 -82 l27
-73 -60 -47 c-33 -26 -61 -45 -63 -43 -4 4 20 116 42 191 9 31 19 55 22 52 3
-3 17 -39 32 -80z m1042 18 c-67 -63 -129 -161 -156 -248 -32 -105 -30 -280 6
-390 31 -95 89 -173 165 -225 89 -61 71 -61 -105 -4 -114 37 -257 106 -348
167 -79 54 -219 171 -238 201 -15 22 -13 26 47 102 151 191 343 332 566 415
112 42 124 38 63 -18z m871 16 c112 -37 230 -99 328 -171 80 -60 278 -260 278
-282 0 -32 -202 -203 -340 -289 -101 -62 -340 -169 -340 -151 0 3 25 28 55 55
94 87 136 205 136 384 0 184 -45 299 -164 418 -37 37 -63 67 -56 67 6 0 52
-14 103 -31z m1016 -86 c9 -40 14 -73 10 -73 -4 0 -27 16 -53 36 l-46 36 20
51 c34 86 36 85 69 -50z m-12 -148 l52 -47 0 -146 c0 -179 -23 -331 -72 -482
-25 -80 -35 -91 -44 -54 -24 98 -129 322 -211 451 l-33 52 66 93 c36 51 82
121 101 156 l35 62 27 -20 c15 -10 51 -40 79 -65z m-2718 -176 l66 -93 -37
-61 c-62 -102 -124 -234 -169 -357 -24 -65 -46 -118 -50 -118 -10 0 -56 132
-80 226 -39 152 -60 405 -41 486 4 17 35 50 85 92 l80 66 39 -74 c22 -41 70
-116 107 -167z m2404 -161 c43 -68 104 -191 147 -296 l33 -82 -49 -51 c-165
-168 -449 -353 -690 -449 -114 -45 -114 -45 -117 52 -2 49 -7 83 -14 85 -20 7
-46 -64 -42 -119 3 -49 1 -52 -30 -71 -39 -23 -138 -46 -198 -47 -30 0 -48 7
-68 25 -38 36 -35 79 9 121 38 36 42 44 21 44 -8 0 -18 5 -21 10 -11 17 15 79
42 99 13 11 22 24 19 29 -2 4 -27 19 -55 32 -55 25 -58 31 -63 105 l-3 49 70
12 c346 59 697 234 915 458 24 25 48 46 52 46 5 0 23 -24 42 -52z m-2274 4 c0
-13 164 -150 239 -200 172 -115 399 -201 652 -245 14 -3 56 -8 93 -12 l67 -7
-6 -47 c-11 -84 -12 -85 -70 -114 -58 -28 -67 -42 -36 -52 20 -6 51 -61 51
-90 0 -9 -9 -19 -20 -22 -27 -7 -25 -14 15 -46 28 -22 35 -35 35 -63 0 -41
-37 -84 -72 -84 -51 0 -192 31 -222 48 -30 18 -31 21 -28 74 3 38 -2 66 -13
87 -26 52 -40 34 -43 -57 -3 -79 -4 -82 -27 -82 -67 0 -345 127 -513 234 -120
76 -207 142 -278 209 l-52 48 20 52 c61 161 173 377 196 377 6 0 12 -4 12 -8z
m2489 -521 c1 -29 -71 -158 -147 -261 -77 -106 -261 -284 -370 -358 -167 -115
-364 -198 -572 -243 -88 -19 -135 -23 -295 -24 -204 0 -260 7 -432 56 -182 51
-354 137 -509 253 -146 108 -340 331 -410 469 -19 36 -23 56 -18 83 3 19 10
37 15 40 5 3 37 -19 72 -49 188 -163 468 -322 704 -401 80 -27 82 -28 108 -81
15 -29 43 -68 62 -87 l34 -33 389 0 389 0 36 35 c20 19 47 58 61 87 14 28 33
54 42 58 9 4 49 18 87 32 207 75 446 225 671 422 73 63 81 63 83 2z"/>
<path d="M3378 4070 c-24 -14 -41 -72 -29 -101 29 -75 129 -101 177 -46 25 30
33 90 13 103 -6 3 -10 -1 -9 -12 5 -41 -1 -54 -30 -69 -36 -19 -58 -14 -100
22 -35 29 -39 64 -10 93 21 21 16 26 -12 10z"/>
<path d="M3495 4062 c17 -11 40 -16 55 -13 l25 4 -25 7 c-14 4 -38 10 -55 14
l-30 7 30 -19z"/>
<path d="M3595 4050 c-17 -7 -15 -9 12 -9 17 -1 35 4 38 9 7 12 -22 12 -50 0z"/>
<path d="M1162 4024 c-22 -15 -30 -58 -13 -68 4 -3 6 5 4 17 -3 14 2 29 12 37
13 11 20 9 45 -15 16 -15 34 -41 41 -58 11 -26 10 -31 -6 -43 -13 -10 -23 -11
-39 -2 -20 10 -20 10 -3 -8 16 -17 20 -18 45 -4 43 25 43 77 -1 124 -38 40
-52 43 -85 20z"/>
<path d="M1061 3947 c64 -43 61 -122 -6 -173 -47 -35 -85 -40 -118 -14 -27 21
-37 63 -17 75 5 3 19 -6 32 -20 12 -14 31 -25 42 -24 15 0 17 2 6 6 -8 3 -28
17 -44 30 -22 18 -31 21 -42 12 -42 -34 23 -129 89 -129 75 0 146 84 132 157
-7 41 -62 103 -90 103 -12 0 -7 -7 16 -23z"/>
<path d="M929 3943 c-13 -16 -12 -17 4 -4 9 7 17 15 17 17 0 8 -8 3 -21 -13z"/>
<path d="M3765 3920 c10 -11 20 -20 23 -20 3 0 -3 9 -13 20 -10 11 -20 20 -23
20 -3 0 3 -9 13 -20z"/>
<path d="M3575 3895 c-65 -64 4 -185 105 -185 55 0 120 56 120 102 0 7 -9 -2
-20 -20 -40 -65 -107 -65 -164 -1 -49 54 -48 97 4 118 25 10 25 10 2 10 -13 1
-34 -10 -47 -24z"/>
<path d="M978 3899 c-10 -5 -18 -21 -18 -33 0 -31 29 -42 49 -19 15 16 15 16
-1 4 -21 -15 -38 -7 -38 19 0 16 7 19 35 18 27 -1 36 -6 44 -27 5 -14 10 -19
10 -10 2 37 -49 67 -81 48z"/>
<path d="M3650 3906 c0 -2 7 -7 16 -10 8 -3 12 -2 9 4 -6 10 -25 14 -25 6z"/>
<path d="M1029 3813 c-13 -16 -12 -17 4 -4 9 7 17 15 17 17 0 8 -8 3 -21 -13z"/>
<path d="M690 3754 c-34 -29 -60 -73 -60 -102 0 -24 31 -52 56 -51 17 0 16 1
-3 9 -37 15 -29 53 21 106 32 33 50 45 67 42 30 -4 36 -34 13 -60 -33 -36 -13
-156 21 -128 17 14 35 5 35 -18 0 -16 -47 -72 -61 -72 -4 0 -15 7 -23 16 -13
13 -16 13 -16 1 0 -19 33 -47 56 -47 29 0 59 25 74 60 10 25 10 34 -4 55 -17
26 -50 33 -62 14 -4 -8 -9 -7 -15 2 -42 66 72 125 120 63 16 -20 21 -23 21
-10 0 31 -21 57 -56 72 -19 8 -39 12 -44 9 -5 -3 -16 10 -24 30 -13 31 -19 35
-50 35 -23 0 -45 -9 -66 -26z"/>
<path d="M690 3570 c-11 -11 -17 -26 -14 -35 9 -21 24 -19 24 4 0 11 10 27 22
35 18 13 19 16 5 16 -9 0 -26 -9 -37 -20z"/>
<path d="M730 3535 c-11 -13 -10 -14 4 -9 9 3 16 10 16 15 0 13 -6 11 -20 -6z"/>
<path d="M3865 3528 c-14 -13 -27 -32 -29 -43 -4 -27 19 -72 41 -79 12 -4 18
-17 19 -36 1 -17 9 -39 19 -50 23 -25 76 -26 98 -2 22 24 22 39 1 18 -21 -22
-31 -20 -61 10 -18 18 -24 33 -21 54 2 16 2 29 -1 28 -22 -2 -32 6 -46 33 -15
28 -15 33 0 55 19 30 67 32 95 4 11 -11 20 -16 20 -11 0 18 -44 41 -77 41 -19
0 -43 -9 -58 -22z"/>
<path d="M623 3443 c-27 -5 -30 -25 -5 -44 14 -11 15 -11 5 1 -20 22 -15 30
17 30 34 0 49 -22 30 -45 -9 -11 -4 -18 29 -35 23 -11 41 -24 41 -28 0 -4 8
-8 19 -8 15 0 16 4 8 17 -6 10 -14 16 -19 13 -4 -3 -20 2 -35 10 -23 12 -28
21 -28 53 0 40 -11 46 -62 36z"/>
<path d="M4051 3429 c23 -23 21 -55 -4 -53 -9 1 -17 -3 -17 -8 0 -5 10 -8 23
-6 28 4 35 43 11 69 -9 10 -21 19 -26 19 -4 0 1 -9 13 -21z"/>
<path d="M761 3374 c0 -11 3 -14 6 -6 3 7 2 16 -1 19 -3 4 -6 -2 -5 -13z"/>
<path d="M574 3372 c-18 -12 -36 -53 -30 -68 9 -23 28 -5 23 22 -5 29 15 48
43 41 11 -3 20 -1 20 4 0 11 -40 12 -56 1z"/>
<path d="M591 3302 c-12 -27 -11 -35 3 -56 33 -51 94 -39 130 24 l20 35 -25
-21 c-37 -33 -46 -35 -73 -22 -16 7 -29 23 -34 42 l-8 30 -13 -32z"/>
<path d="M817 3289 c7 -7 15 -10 18 -7 3 3 -2 9 -12 12 -14 6 -15 5 -6 -5z"/>
<path d="M4035 3268 c-41 -23 -59 -77 -43 -130 19 -63 70 -107 120 -103 60 5
128 53 128 90 0 5 -9 -4 -20 -22 -14 -23 -29 -34 -56 -39 -72 -13 -122 28
-131 108 -6 51 8 85 40 98 21 8 21 9 2 9 -11 0 -29 -5 -40 -11z"/>
<path d="M4128 3238 c-19 -19 -13 -24 11 -9 7 5 12 13 10 18 -2 5 -12 1 -21
-9z"/>
<path d="M3879 3218 c-12 -22 -11 -22 8 -5 11 9 25 17 31 17 6 0 16 -8 21 -17
6 -10 11 -13 11 -7 1 35 -54 45 -71 12z"/>
<path d="M4082 3208 c-29 -29 4 -99 46 -97 13 0 14 2 2 6 -45 16 -65 64 -38
91 7 7 10 12 7 12 -3 0 -10 -5 -17 -12z"/>
<path d="M4114 3185 c-7 -18 13 -45 33 -45 9 0 11 -5 7 -12 -5 -9 -2 -9 9 1
18 14 23 56 9 65 -5 3 -8 -5 -8 -17 1 -16 -5 -22 -19 -22 -14 0 -20 6 -19 23
1 26 -4 28 -12 7z"/>
<path d="M4242 3165 c0 -16 2 -22 5 -12 2 9 2 23 0 30 -3 6 -5 -1 -5 -18z"/>
<path d="M3881 3170 c0 -8 4 -24 9 -35 5 -13 9 -14 9 -5 0 8 -4 24 -9 35 -5
13 -9 14 -9 5z"/>
<path d="M3902 3095 c0 -11 3 -29 8 -40 11 -25 11 1 0 35 -6 20 -8 21 -8 5z"/>
<path d="M3920 3018 c0 -9 5 -20 10 -23 13 -8 13 5 0 25 -8 13 -10 13 -10 -2z"/>
<path d="M3985 3015 c-54 -17 -33 -18 30 -1 28 8 41 14 30 14 -11 0 -38 -5
-60 -13z"/>
<path d="M4225 2290 c-15 -7 -10 -8 16 -4 45 7 105 -17 114 -45 8 -25 -10 -61
-32 -61 -15 0 -15 -2 -1 -17 32 -37 -15 -91 -51 -59 -20 19 -31 20 -31 5 0 -5
5 -7 10 -4 6 3 10 2 10 -3 0 -5 13 -15 30 -22 41 -17 80 7 80 49 0 16 8 43 18
60 22 39 11 58 -48 89 -46 23 -81 27 -115 12z"/>
<path d="M4210 2165 c-14 -17 -10 -47 8 -53 9 -3 11 3 6 23 -5 18 -2 30 7 36
8 5 9 9 3 9 -6 0 -17 -7 -24 -15z"/>
<path d="M440 2112 c0 -6 7 -13 16 -16 11 -4 14 -13 11 -28 -4 -14 -3 -18 4
-11 16 16 6 57 -13 61 -10 2 -18 -1 -18 -6z"/>
<path d="M340 2090 c-26 -26 -25 -65 3 -120 19 -39 27 -45 58 -48 21 -2 40 2
47 11 9 11 6 13 -18 9 -27 -4 -32 0 -50 39 -11 24 -20 56 -20 70 0 31 23 54
45 45 9 -3 13 -2 10 4 -10 17 -54 11 -75 -10z"/>
<path d="M4182 2038 c-14 -14 -16 -54 -3 -62 4 -3 6 6 3 19 -4 22 -1 25 22 25
32 0 91 -23 101 -41 5 -7 0 -19 -15 -31 -24 -20 -20 -24 11 -8 24 13 25 52 2
72 -42 35 -100 47 -121 26z"/>
<path d="M484 2009 c-3 -5 9 -9 25 -9 17 0 31 2 31 4 0 8 -51 13 -56 5z"/>
<path d="M457 1979 c7 -25 30 -36 45 -21 8 8 5 9 -11 5 -16 -4 -21 -1 -21 16
0 11 -4 21 -9 21 -5 0 -7 -9 -4 -21z"/>
<path d="M571 1974 c15 -16 25 -21 28 -13 2 7 -4 18 -15 26 -30 22 -39 15 -13
-13z"/>
<path d="M4112 1908 c-15 -15 -16 -74 -2 -83 6 -3 10 3 10 14 0 71 122 65 133
-7 4 -26 4 -25 6 5 2 43 -45 83 -98 83 -20 0 -42 -5 -49 -12z"/>
<path d="M513 1893 c-19 -7 -15 -23 5 -23 10 0 23 -5 30 -12 7 -7 12 -8 12 -2
0 16 -33 42 -47 37z"/>
<path d="M405 1832 c-13 -63 47 -141 98 -128 30 7 51 51 37 74 -9 14 -10 14
-5 -4 8 -31 -20 -57 -46 -43 -27 14 -61 70 -55 91 2 10 -2 22 -9 28 -10 9 -15
4 -20 -18z"/>
<path d="M515 1831 c-27 -6 -28 -7 -10 -15 11 -5 23 -9 26 -8 4 1 17 -10 30
-24 36 -38 34 -107 -4 -140 -33 -28 -62 -31 -76 -6 -6 9 -11 12 -11 7 -1 -44
79 -47 121 -6 44 45 41 92 -11 143 -22 22 -37 44 -34 49 3 5 4 8 2 8 -2 -1
-16 -4 -33 -8z"/>
<path d="M4145 1809 c-4 -6 -5 -12 -2 -15 2 -3 7 2 10 11 7 17 1 20 -8 4z"/>
<path d="M4189 1803 c6 -12 5 -26 -6 -46 -13 -25 -19 -28 -50 -25 -31 4 -33 3
-17 -9 63 -46 152 29 96 80 -24 22 -36 22 -23 0z"/>
<path d="M4008 1684 c-15 -8 -33 -24 -39 -37 -10 -19 -7 -17 19 7 17 16 48 32
69 36 34 7 35 8 8 8 -16 1 -42 -5 -57 -14z"/>
<path d="M4080 1640 c16 -16 18 -24 9 -50 -12 -32 -52 -70 -76 -70 -8 0 -25
11 -38 25 -14 13 -25 20 -25 14 0 -5 11 -21 25 -34 31 -32 86 -34 115 -5 20
20 40 61 40 81 0 13 -46 59 -60 59 -5 0 -1 -9 10 -20z"/>
<path d="M4016 1631 c-16 -18 -16 -18 10 -13 21 4 25 1 22 -14 -2 -12 -12 -19
-26 -18 -15 0 -19 -3 -13 -9 13 -13 40 -2 48 19 4 10 0 22 -10 29 -9 7 -14 15
-10 18 3 4 4 7 1 7 -3 0 -13 -8 -22 -19z"/>
<path d="M647 1603 c35 -7 35 -30 0 -57 -44 -33 -85 -43 -93 -22 -3 9 0 24 7
34 13 15 12 16 -3 3 -35 -27 -15 -71 33 -71 35 0 93 40 97 68 4 30 -15 52 -42
51 l-21 -2 22 -4z"/>
<path d="M3840 1567 c14 -8 27 -12 30 -10 7 6 -23 23 -40 23 -8 0 -4 -6 10
-13z"/>
<path d="M794 1538 c-5 -7 -3 -8 5 -3 16 9 75 -47 92 -86 9 -23 9 -32 -2 -46
-12 -14 -12 -16 0 -12 43 15 35 68 -19 127 -29 32 -63 41 -76 20z"/>
<path d="M3855 1529 c-4 -6 -5 -12 -2 -15 2 -3 7 2 10 11 7 17 1 20 -8 4z"/>
<path d="M800 1486 c0 -2 8 -10 18 -17 15 -13 16 -12 3 4 -13 16 -21 21 -21
13z"/>
<path d="M3857 1472 c-31 -19 -57 -68 -57 -107 0 -16 -4 -24 -11 -20 -6 4 -5
-2 2 -13 17 -26 19 -24 23 23 6 78 99 122 160 74 34 -27 34 -10 -1 23 -37 33
-81 41 -116 20z"/>
<path d="M655 1455 c-30 -30 -32 -69 -4 -88 11 -8 28 -30 37 -48 12 -23 25
-35 42 -37 32 -3 89 27 109 59 15 23 15 23 -17 -3 -42 -35 -76 -36 -98 -3 -12
19 -14 28 -5 39 9 11 6 12 -14 9 -36 -7 -55 36 -31 72 21 32 12 32 -19 0z"/>
<path d="M848 1400 c5 -35 8 -37 15 -10 3 10 -1 24 -7 29 -10 8 -11 3 -8 -19z"/>
<path d="M3878 1374 c12 -8 22 -23 22 -32 0 -21 -58 -94 -70 -87 -4 3 -10 -4
-13 -15 -6 -24 4 -25 43 -5 37 19 70 62 70 91 0 28 -32 64 -57 64 -14 0 -13
-3 5 -16z"/>
<path d="M3735 1330 c-8 -24 1 -40 21 -40 12 0 12 4 4 20 -6 11 -8 25 -5 30 3
6 2 10 -4 10 -5 0 -12 -9 -16 -20z"/>
<path d="M887 1304 c-11 -11 3 -24 25 -24 16 0 19 -5 16 -25 -3 -13 -1 -22 3
-19 17 10 9 53 -10 64 -23 12 -26 12 -34 4z"/>
<path d="M814 1245 c-20 -30 -13 -62 21 -103 53 -63 132 -64 154 -1 12 34 0
39 -14 7 -6 -13 -18 -24 -28 -26 -23 -5 -83 41 -102 78 -18 36 -18 35 1 54 14
14 14 16 0 16 -9 0 -23 -11 -32 -25z"/>
<path d="M3704 1243 c38 -42 37 -76 -5 -119 -39 -40 -64 -50 -84 -34 -12 10
-15 10 -15 0 0 -18 31 -39 57 -40 31 0 90 55 98 90 8 37 -20 97 -55 119 -24
14 -24 13 4 -16z"/>
<path d="M946 1221 c-3 -4 4 -17 17 -27 l22 -19 -18 22 c-18 21 -18 21 5 26
22 4 22 4 1 6 -12 0 -24 -3 -27 -8z"/>
<path d="M1011 1184 c0 -11 3 -14 6 -6 3 7 2 16 -1 19 -3 4 -6 -2 -5 -13z"/>
<path d="M3570 1180 c-11 -11 -17 -26 -14 -35 8 -20 24 -9 24 16 0 23 27 36
42 21 9 -9 6 -18 -7 -34 l-19 -23 24 22 c20 18 21 24 10 37 -17 21 -36 20 -60
-4z"/>
<path d="M1125 1150 c-12 -13 -25 -18 -40 -14 -12 3 -26 -1 -33 -9 -10 -12 -6
-14 27 -13 29 0 41 5 45 18 6 25 32 22 82 -7 43 -25 61 -54 49 -77 -4 -7 1 -4
9 6 24 29 20 45 -20 82 -42 40 -90 46 -119 14z"/>
<path d="M1078 1088 c-14 -9 -6 -11 33 -8 37 2 79 -50 79 -97 0 -25 -8 -43
-29 -64 -32 -31 -31 -35 2 -18 37 19 57 52 57 95 0 45 -15 65 -65 85 -39 15
-61 18 -77 7z"/>
<path d="M3409 1051 c-40 -40 -37 -58 4 -27 54 41 129 28 151 -25 9 -21 14
-24 23 -14 9 10 4 22 -26 54 -33 36 -44 41 -80 41 -34 0 -49 -6 -72 -29z"/>
<path d="M990 1050 c-18 -14 -20 -20 -9 -20 8 0 22 -15 30 -32 24 -56 104 -64
127 -13 12 27 -1 75 -22 75 -6 0 -5 -5 2 -12 28 -28 1 -75 -36 -64 -11 4 -34
20 -50 36 -28 26 -29 30 -14 39 9 6 13 10 7 10 -5 1 -21 -8 -35 -19z"/>
<path d="M3104 991 c-45 -21 -75 -55 -67 -77 8 -22 22 -16 16 6 -4 16 5 24 48
45 71 33 93 33 87 0 -3 -14 -1 -25 4 -25 5 0 8 15 6 33 -2 26 -8 32 -28 35
-14 1 -44 -6 -66 -17z"/>
<path d="M3312 988 c-14 -14 -16 -58 -2 -58 6 0 10 11 10 25 0 18 5 25 19 25
11 0 21 -5 23 -12 3 -8 11 -7 28 5 51 36 96 9 65 -39 -18 -27 -56 -54 -81 -58
-29 -4 -28 -26 1 -26 53 0 115 49 115 91 0 40 -26 62 -64 55 -44 -9 -69 -10
-86 -2 -9 3 -21 1 -28 -6z"/>
<path d="M1453 964 c-3 -9 2 -23 13 -32 17 -16 17 -16 4 1 -9 13 -10 21 -2 29
8 8 26 4 65 -16 63 -30 78 -52 44 -66 -22 -9 -22 -9 -1 -9 31 -1 48 23 34 48
-24 47 -143 81 -157 45z"/>
<path d="M3624 952 c14 -19 26 -37 26 -40 -1 -4 -30 -31 -66 -59 -36 -29 -63
-53 -59 -53 9 0 129 100 133 110 2 5 -11 23 -29 42 l-31 33 26 -33z"/>
<path d="M3227 925 c30 -21 39 -69 19 -100 -52 -80 -164 -74 -167 9 -1 25 -3
27 -6 8 -7 -35 16 -81 48 -97 36 -19 53 -19 95 1 44 21 68 65 60 109 -7 36
-41 85 -59 85 -6 0 -2 -7 10 -15z"/>
<path d="M3150 906 c0 -2 7 -6 15 -10 8 -3 15 -1 15 4 0 6 -7 10 -15 10 -8 0
-15 -2 -15 -4z"/>
<path d="M1420 885 c0 -11 8 -13 30 -8 21 4 30 2 30 -7 0 -8 3 -10 6 -7 4 4 1
13 -6 22 -16 20 -60 20 -60 0z"/>
<path d="M3201 857 c-1 -19 -8 -31 -23 -37 -16 -6 -18 -9 -7 -9 24 -1 41 24
36 51 -4 20 -4 20 -6 -5z"/>
<path d="M3489 853 c-13 -17 -13 -17 6 -3 11 8 22 16 24 17 2 2 0 3 -6 3 -6 0
-17 -8 -24 -17z"/>
<path d="M1386 834 c-33 -33 -18 -78 37 -105 51 -27 97 -19 131 22 14 17 26
35 26 41 0 6 -9 -1 -21 -16 -15 -19 -30 -26 -55 -26 -67 0 -131 53 -103 86 16
19 4 18 -15 -2z"/>
<path d="M3120 831 c0 -10 19 -25 25 -20 1 2 -3 10 -11 17 -8 7 -14 8 -14 3z"/>
<path d="M1670 787 c0 -9 9 -12 29 -9 29 4 48 -18 35 -41 -5 -9 -3 -8 6 0 11
10 10 17 -4 37 -18 28 -66 37 -66 13z"/>
<path d="M1617 742 c-32 -35 -18 -79 33 -107 11 -6 10 -3 -2 12 -25 27 -22 60
7 88 l24 25 -23 0 c-13 0 -30 -8 -39 -18z"/>
<path d="M1908 733 c6 -2 18 -2 25 0 6 3 1 5 -13 5 -14 0 -19 -2 -12 -5z"/>
<path d="M1852 705 c0 -16 2 -22 5 -12 2 9 2 23 0 30 -3 6 -5 -1 -5 -18z"/>
<path d="M1880 711 c0 -6 4 -13 10 -16 6 -3 7 1 4 9 -7 18 -14 21 -14 7z"/>
<path d="M1951 704 c0 -11 3 -14 6 -6 3 7 2 16 -1 19 -3 4 -6 -2 -5 -13z"/>
<path d="M2540 710 c-8 -5 -12 -11 -10 -14 3 -2 14 2 24 10 22 15 10 19 -14 4z"/>
<path d="M2590 713 c21 -10 10 -33 -17 -34 l-28 -1 29 -7 c55 -12 62 -64 10
-77 -15 -4 -34 -2 -43 3 -12 7 -20 6 -29 -3 -16 -17 -54 -18 -70 -2 -20 20
-14 65 10 82 12 9 18 16 12 16 -41 0 -61 -102 -26 -133 24 -22 68 -22 81 1 8
14 12 15 22 5 18 -18 54 -16 73 3 19 18 21 75 4 92 -7 7 -13 22 -13 34 0 12
-6 22 -13 24 -7 1 -8 0 -2 -3z"/>
<path d="M2865 703 c-11 -3 -24 -10 -30 -15 -7 -7 -2 -8 15 -3 52 15 64 30 15
18z"/>
<path d="M2040 691 c22 -6 25 -12 24 -54 0 -59 -23 -88 -50 -66 -15 12 -17 12
-12 -1 3 -9 17 -15 38 -15 32 0 35 3 48 45 20 64 5 100 -40 99 -30 -1 -31 -2
-8 -8z"/>
<path d="M2181 674 c-87 -73 -37 -204 79 -204 46 0 100 27 100 50 0 5 -11 -2
-25 -15 -58 -59 -154 -7 -155 83 0 53 12 77 48 96 25 14 25 15 5 16 -12 0 -35
-12 -52 -26z"/>
<path d="M1930 672 c42 -34 -6 -75 -64 -53 -22 9 -26 15 -20 34 3 12 5 20 3
17 -2 -3 -15 -18 -29 -35 -14 -16 -21 -27 -16 -23 5 4 22 -4 38 -17 16 -14 38
-25 49 -25 25 0 69 43 69 68 0 18 -29 52 -44 52 -5 0 2 -8 14 -18z"/>
<path d="M2351 648 c-1 -24 -5 -28 -31 -28 -17 0 -33 7 -39 18 -6 9 -11 12
-11 5 0 -17 29 -43 49 -43 26 0 43 25 38 52 -4 20 -4 20 -6 -4z"/>
<path d="M1671 608 c-17 -18 -31 -40 -31 -49 0 -19 19 -39 38 -39 10 0 10 4
-2 22 -21 29 -20 31 10 67 34 41 23 40 -15 -1z"/>
</g>
</svg>
